<svg width="1061" height="106" viewBox="0 0 1061 106" fill="none" xmlns="http://www.w3.org/2000/svg">
<path d="M727.019 60.6856C726.396 60.7191 725.781 60.5432 725.271 60.1864C725.058 60.0295 724.887 59.8235 724.772 59.5861C724.658 59.3488 724.603 59.0872 724.612 58.824V49.1832C724.607 49.1424 724.611 49.1009 724.625 49.062C724.638 49.0231 724.661 48.9878 724.69 48.9587C724.719 48.9296 724.755 48.9076 724.794 48.8942C724.833 48.8808 724.875 48.8765 724.916 48.8816H726.673C726.872 48.8816 726.966 48.9856 726.966 49.1832V58.0752C726.966 58.4704 727.144 58.668 727.51 58.668C727.665 58.6743 727.821 58.6568 727.971 58.616C728.18 58.616 728.295 58.6784 728.305 58.8656L728.462 60.1656C728.47 60.2035 728.469 60.2425 728.46 60.2801C728.451 60.3177 728.434 60.353 728.411 60.3836C728.387 60.4141 728.357 60.4392 728.322 60.4572C728.288 60.4753 728.25 60.4857 728.211 60.488C727.826 60.6144 727.424 60.681 727.019 60.6856Z" fill="#232536"/>
<path d="M736.905 59.5728C736.022 60.2982 734.912 60.695 733.767 60.695C732.621 60.695 731.511 60.2982 730.628 59.5728C729.852 58.7938 729.416 57.7417 729.416 56.6452C729.416 55.5487 729.852 54.4966 730.628 53.7176C731.513 52.996 732.622 52.6016 733.767 52.6016C734.911 52.6016 736.021 52.996 736.905 53.7176C737.664 54.5037 738.087 55.5508 738.087 56.64C738.087 57.7292 737.664 58.7762 736.905 59.5624V59.5728ZM732.281 58.2C732.691 58.569 733.224 58.7734 733.777 58.7734C734.33 58.7734 734.863 58.569 735.273 58.2C735.644 57.776 735.849 57.2331 735.849 56.6712C735.849 56.1093 735.644 55.5664 735.273 55.1424C734.863 54.7733 734.33 54.5689 733.777 54.5689C733.224 54.5689 732.691 54.7733 732.281 55.1424C731.91 55.5664 731.706 56.1093 731.706 56.6712C731.706 57.2331 731.91 57.776 732.281 58.2Z" fill="#232536"/>
<path d="M747.766 52.8647C747.964 52.8647 748.058 52.9687 748.058 53.1663V60.6231C748.077 61.1264 747.982 61.6274 747.781 62.0897C747.58 62.5521 747.278 62.9641 746.897 63.2959C746.051 64.0129 744.963 64.3846 743.853 64.3359C742.849 64.371 741.86 64.0987 741.017 63.5559C740.658 63.3211 740.35 63.0153 740.115 62.6575C739.879 62.2997 739.72 61.8975 739.647 61.4759C739.647 61.2679 739.647 61.1743 739.929 61.1743H741.687C741.762 61.1768 741.834 61.2008 741.895 61.2432C741.956 61.2856 742.004 61.3448 742.032 61.4135C742.146 61.7294 742.373 61.9923 742.67 62.1519C743.032 62.3375 743.435 62.4305 743.842 62.4223C744.088 62.4357 744.334 62.4003 744.565 62.3181C744.797 62.236 745.01 62.1088 745.192 61.9439C745.358 61.7714 745.487 61.5673 745.571 61.3439C745.656 61.1205 745.694 60.8824 745.684 60.6439V59.9887C745.054 60.4488 744.288 60.6868 743.507 60.6647C742.961 60.6845 742.416 60.5942 741.905 60.3994C741.395 60.2046 740.929 59.9093 740.536 59.5311C739.782 58.7554 739.36 57.7188 739.36 56.6399C739.36 55.5611 739.782 54.5244 740.536 53.7487C740.931 53.3739 741.397 53.0814 741.907 52.8885C742.418 52.6956 742.962 52.6062 743.507 52.6255C744.311 52.6044 745.097 52.8577 745.736 53.3431V53.1767C745.731 53.1369 745.735 53.0964 745.748 53.0584C745.761 53.0203 745.782 52.9856 745.81 52.9567C745.838 52.9279 745.872 52.9056 745.91 52.8914C745.948 52.8773 745.989 52.8717 746.029 52.8751L747.766 52.8647ZM743.706 58.8135C743.976 58.8218 744.244 58.7711 744.491 58.6651C744.739 58.5591 744.96 58.4003 745.139 58.1999C745.487 57.7534 745.676 57.2047 745.676 56.6399C745.676 56.0752 745.487 55.5264 745.139 55.0799C744.961 54.8822 744.741 54.7258 744.495 54.6216C744.249 54.5174 743.984 54.4679 743.717 54.4767C743.444 54.4682 743.173 54.5186 742.922 54.6246C742.671 54.7305 742.446 54.8894 742.262 55.0903C741.877 55.5174 741.674 56.077 741.697 56.6503C741.678 57.2179 741.877 57.7716 742.252 58.1999C742.436 58.4002 742.661 58.5588 742.912 58.6647C743.163 58.7706 743.434 58.8213 743.706 58.8135Z" fill="#232536"/>
<path d="M757.087 59.5728C756.202 60.2944 755.093 60.6888 753.949 60.6888C752.804 60.6888 751.695 60.2944 750.81 59.5728C750.051 58.7849 749.627 57.7361 749.627 56.6452C749.627 55.5543 750.051 54.5055 750.81 53.7176C751.696 52.9978 752.805 52.6046 753.949 52.6046C755.093 52.6046 756.202 52.9978 757.087 53.7176C757.846 54.5038 758.269 55.5508 758.269 56.64C758.269 57.7292 757.846 58.7762 757.087 59.5624V59.5728ZM752.453 58.2C752.653 58.3897 752.89 58.5379 753.148 58.6361C753.407 58.7343 753.682 58.7805 753.959 58.772C754.234 58.7791 754.508 58.7322 754.764 58.6341C755.021 58.5359 755.256 58.3884 755.455 58.2C755.82 57.7732 756.02 57.2313 756.02 56.6712C756.02 56.1111 755.82 55.5692 755.455 55.1424C755.256 54.954 755.021 54.8065 754.764 54.7083C754.508 54.6102 754.234 54.5633 753.959 54.5704C753.682 54.5619 753.407 54.6081 753.148 54.7063C752.89 54.8045 752.653 54.9527 752.453 55.1424C752.088 55.5692 751.887 56.1111 751.887 56.6712C751.887 57.2313 752.088 57.7732 752.453 58.2Z" fill="#232536"/>
<path d="M762.047 51.0968C761.77 51.3374 761.415 51.4701 761.047 51.4701C760.68 51.4701 760.325 51.3374 760.048 51.0968C759.923 50.9792 759.823 50.8373 759.755 50.6799C759.686 50.5226 759.651 50.353 759.651 50.1816C759.651 50.0102 759.686 49.8406 759.755 49.6833C759.823 49.5259 759.923 49.384 760.048 49.2664C760.328 49.0318 760.682 48.9031 761.047 48.9031C761.413 48.9031 761.767 49.0318 762.047 49.2664C762.172 49.384 762.272 49.5259 762.34 49.6833C762.408 49.8406 762.444 50.0102 762.444 50.1816C762.444 50.353 762.408 50.5226 762.34 50.6799C762.272 50.8373 762.172 50.9792 762.047 51.0968ZM762.266 60.6856C761.644 60.7159 761.03 60.5403 760.519 60.1864C760.309 60.0272 760.141 59.8205 760.028 59.5835C759.915 59.3465 759.861 59.0861 759.87 58.824V53.1664C759.865 53.1256 759.87 53.0841 759.883 53.0453C759.896 53.0064 759.919 52.971 759.948 52.9419C759.977 52.9129 760.013 52.8908 760.052 52.8774C760.091 52.8641 760.133 52.8597 760.174 52.8648H761.931C762.13 52.8648 762.224 52.9688 762.224 53.1664V58.0752C762.224 58.4704 762.402 58.668 762.758 58.668C762.917 58.6737 763.075 58.6561 763.229 58.616C763.438 58.616 763.553 58.6784 763.564 58.8656L763.72 60.1656C763.728 60.2035 763.727 60.2426 763.718 60.2802C763.709 60.3178 763.693 60.353 763.669 60.3836C763.645 60.4141 763.615 60.4393 763.58 60.4573C763.546 60.4753 763.508 60.4858 763.469 60.488C763.081 60.6151 762.675 60.6818 762.266 60.6856Z" fill="#232536"/>
<path d="M770.186 52.6152C770.735 52.5936 771.283 52.6819 771.797 52.8749C772.311 53.0678 772.781 53.3614 773.179 53.7384C773.919 54.5276 774.33 55.5664 774.33 56.6452C774.33 57.724 773.919 58.7627 773.179 59.552C772.783 59.9322 772.314 60.2287 771.799 60.4236C771.285 60.6184 770.736 60.7076 770.186 60.6856C769.403 60.7029 768.635 60.4655 768 60.0096V63.764C768 63.9616 767.895 64.0552 767.696 64.0552H765.939C765.899 64.0626 765.857 64.0602 765.818 64.0482C765.779 64.0362 765.744 64.015 765.715 63.9863C765.686 63.9576 765.665 63.9224 765.653 63.8836C765.641 63.8449 765.638 63.8038 765.646 63.764V55.236C765.658 55.1525 765.651 55.0674 765.624 54.9874C765.597 54.9074 765.552 54.8346 765.492 54.775C765.432 54.7154 765.359 54.6706 765.279 54.6441C765.198 54.6175 765.112 54.6101 765.029 54.6224H764.683C764.453 54.6224 764.338 54.5392 764.338 54.3728V53.1456C764.333 53.0696 764.353 52.9941 764.397 52.9317C764.441 52.8692 764.505 52.8236 764.579 52.8024C764.941 52.6716 765.324 52.6081 765.709 52.6152C766.093 52.5814 766.478 52.6623 766.815 52.8476C767.153 53.0329 767.427 53.3141 767.602 53.6552C767.939 53.3163 768.342 53.0493 768.787 52.8705C769.231 52.6917 769.707 52.6048 770.186 52.6152ZM768.554 58.2C768.741 58.3938 768.965 58.548 769.213 58.6534C769.461 58.7587 769.728 58.813 769.998 58.813C770.268 58.813 770.535 58.7587 770.783 58.6534C771.031 58.548 771.255 58.3938 771.442 58.2C771.835 57.7643 772.041 57.1934 772.017 56.6088C772.045 56.0236 771.838 55.4515 771.442 55.0176C771.255 54.8238 771.031 54.6695 770.783 54.5642C770.535 54.4588 770.268 54.4045 769.998 54.4045C769.728 54.4045 769.461 54.4588 769.213 54.5642C768.965 54.6695 768.741 54.8238 768.554 55.0176C768.174 55.4591 767.976 56.0277 768 56.6088C767.979 57.1893 768.176 57.7568 768.554 58.2Z" fill="#232536"/>
<path d="M779.268 60.6855C778.328 60.7239 777.397 60.5005 776.579 60.0407C776.251 59.8441 775.971 59.5766 775.761 59.2579C775.551 58.9392 775.416 58.5776 775.365 58.1999C775.365 57.9919 775.438 57.8879 775.669 57.8879H777.207C777.28 57.8907 777.351 57.9136 777.412 57.954C777.473 57.9943 777.521 58.0507 777.552 58.1167C777.772 58.6783 778.347 58.9591 779.268 58.9591C779.589 58.9737 779.909 58.9094 780.199 58.7719C780.299 58.7269 780.385 58.6558 780.448 58.566C780.51 58.4763 780.547 58.3713 780.555 58.2623C780.555 57.9919 780.387 57.8047 780.052 57.6799C779.655 57.5485 779.245 57.4613 778.828 57.4199C778.335 57.3644 777.846 57.2775 777.364 57.1599C776.895 57.0544 776.468 56.8117 776.139 56.4631C775.946 56.2262 775.803 55.9521 775.721 55.6581C775.638 55.3641 775.617 55.0563 775.659 54.7539C775.702 54.4515 775.806 54.161 775.966 53.9004C776.126 53.6398 776.338 53.4147 776.589 53.2391C777.343 52.7616 778.228 52.529 779.121 52.5735C779.986 52.5444 780.841 52.757 781.59 53.1871C781.892 53.3571 782.152 53.5918 782.351 53.8743C782.55 54.1568 782.684 54.4798 782.741 54.8199C782.741 55.0279 782.647 55.1319 782.459 55.1319H780.91C780.845 55.1357 780.78 55.1199 780.724 55.0865C780.668 55.0531 780.624 55.0037 780.596 54.9447C780.493 54.6984 780.298 54.501 780.052 54.3935C779.775 54.2493 779.465 54.1777 779.153 54.1855C778.846 54.1689 778.54 54.2297 778.263 54.3623C778.166 54.3997 778.082 54.4652 778.022 54.5505C777.962 54.6358 777.93 54.7368 777.929 54.8407C777.935 54.9829 777.988 55.1193 778.078 55.2297C778.168 55.3401 778.292 55.4189 778.431 55.4543C778.832 55.6048 779.25 55.7095 779.676 55.7663C780.165 55.8303 780.651 55.9206 781.13 56.0367C781.599 56.1422 782.025 56.3849 782.354 56.7335C782.53 56.9255 782.666 57.1503 782.754 57.3949C782.842 57.6394 782.88 57.8989 782.867 58.1583C782.876 58.5178 782.791 58.8735 782.62 59.1907C782.45 59.5078 782.199 59.7756 781.894 59.9679C781.112 60.4667 780.196 60.717 779.268 60.6855Z" fill="#232536"/>
<path d="M793.926 60.1655C793.931 60.2025 793.93 60.2402 793.921 60.2765C793.912 60.3129 793.896 60.347 793.873 60.3771C793.851 60.4071 793.823 60.4324 793.79 60.4514C793.758 60.4705 793.722 60.4829 793.685 60.488C793.303 60.6119 792.904 60.6785 792.503 60.6855C792.105 60.7265 791.704 60.6647 791.337 60.5062C790.97 60.3477 790.651 60.0978 790.41 59.7808C789.671 60.4123 788.716 60.7364 787.742 60.6855C787.29 60.7062 786.839 60.6327 786.417 60.4697C785.996 60.3068 785.613 60.0579 785.294 59.7391C784.977 59.4052 784.731 59.011 784.571 58.5803C784.411 58.1497 784.34 57.6913 784.363 57.2327V53.1663C784.363 52.9687 784.457 52.8647 784.656 52.8647H786.414C786.612 52.8647 786.707 52.9687 786.707 53.1663V56.9207C786.687 57.3885 786.848 57.8459 787.156 58.1999C787.31 58.3621 787.497 58.4897 787.705 58.574C787.912 58.6583 788.136 58.6974 788.36 58.6888C788.589 58.6987 788.818 58.6634 789.033 58.5849C789.249 58.5063 789.447 58.3861 789.615 58.2311C789.774 58.0678 789.899 57.8737 789.98 57.6609C790.06 57.448 790.097 57.2209 790.086 56.9935V53.1663C790.086 52.9687 790.18 52.8647 790.379 52.8647H792.157C792.356 52.8647 792.45 52.9687 792.45 53.1663V58.0647C792.45 58.4703 792.628 58.668 792.973 58.668C793.136 58.6742 793.298 58.6567 793.455 58.616C793.494 58.6049 793.536 58.6029 793.576 58.6102C793.617 58.6174 793.655 58.6336 793.688 58.6576C793.721 58.6816 793.749 58.7128 793.768 58.7488C793.787 58.7848 793.798 58.8247 793.8 58.8655L793.926 60.1655Z" fill="#232536"/>
<path d="M810.55 60.1657C810.56 60.2029 810.56 60.2417 810.553 60.2794C810.545 60.317 810.529 60.3525 810.506 60.3833C810.483 60.4141 810.454 60.4395 810.42 60.4576C810.386 60.4757 810.348 60.4861 810.31 60.4881C809.921 60.6138 809.515 60.6804 809.106 60.6857C808.484 60.7176 807.869 60.5419 807.359 60.1865C807.139 60.0342 806.959 59.8302 806.837 59.5926C806.715 59.3549 806.653 59.0909 806.658 58.8241V56.3801C806.68 55.9137 806.523 55.4564 806.219 55.1009C806.072 54.9383 805.891 54.8102 805.688 54.7256C805.485 54.6411 805.267 54.6023 805.047 54.6121C804.849 54.6046 804.652 54.642 804.471 54.7212C804.29 54.8005 804.129 54.9196 804.001 55.0697C803.725 55.4182 803.583 55.8537 803.603 56.2969V60.1345C803.603 60.3321 803.509 60.4361 803.31 60.4361H801.542C801.501 60.4411 801.459 60.4368 801.42 60.4234C801.381 60.4101 801.346 60.388 801.316 60.3589C801.287 60.3298 801.265 60.2945 801.251 60.2556C801.238 60.2167 801.234 60.1753 801.239 60.1345V56.3801C801.262 55.9188 801.117 55.4648 800.831 55.1009C800.703 54.948 800.543 54.825 800.362 54.7405C800.182 54.656 799.984 54.6121 799.784 54.6121C799.571 54.6035 799.358 54.6398 799.16 54.7187C798.961 54.7975 798.782 54.9171 798.634 55.0697C798.334 55.407 798.18 55.8477 798.205 56.2969V60.1345C798.21 60.1753 798.205 60.2167 798.192 60.2556C798.178 60.2945 798.156 60.3298 798.127 60.3589C798.098 60.388 798.062 60.4101 798.023 60.4234C797.984 60.4368 797.942 60.4411 797.901 60.4361H796.196C795.997 60.4361 795.903 60.3321 795.903 60.1345V55.2361C795.915 55.1526 795.908 55.0675 795.881 54.9875C795.854 54.9075 795.809 54.8347 795.749 54.7751C795.689 54.7155 795.616 54.6707 795.536 54.6442C795.455 54.6176 795.37 54.6102 795.286 54.6225H794.94C794.71 54.6225 794.595 54.5393 794.595 54.3729V53.1457C794.59 53.0697 794.611 52.9942 794.654 52.9318C794.698 52.8693 794.762 52.8237 794.836 52.8025C795.198 52.6717 795.581 52.6082 795.966 52.6153C796.335 52.584 796.706 52.6572 797.036 52.8265C797.365 52.9958 797.64 53.2543 797.828 53.5721C798.181 53.2395 798.599 52.9829 799.056 52.8183C799.514 52.6536 800 52.5845 800.485 52.6153C800.957 52.5924 801.427 52.6803 801.858 52.8718C802.289 53.0634 802.668 53.3531 802.965 53.7177C803.311 53.3436 803.737 53.0506 804.211 52.86C804.685 52.6693 805.196 52.5858 805.706 52.6153C806.163 52.594 806.619 52.6672 807.046 52.8301C807.473 52.993 807.861 53.2421 808.186 53.5617C808.504 53.895 808.75 54.289 808.91 54.7198C809.07 55.1507 809.141 55.6094 809.117 56.0681V58.0753C809.117 58.4705 809.295 58.6681 809.63 58.6681C809.792 58.6756 809.954 58.658 810.111 58.6161C810.327 58.6161 810.442 58.6993 810.456 58.8657L810.55 60.1657Z" fill="#232536"/>
<path d="M687.868 51.5129C688.64 48.4289 690.428 45.6903 692.947 43.7332C695.466 41.776 698.571 40.7128 701.768 40.7128C704.965 40.7128 708.07 41.776 710.589 43.7332C713.107 45.6903 714.895 48.4289 715.667 51.5129H714.411C712.294 51.4819 710.219 52.1111 708.479 53.3121C708.379 53.3843 708.274 53.4503 708.165 53.5097H708.019C707.91 53.4503 707.805 53.3843 707.705 53.3121C705.95 52.1389 703.883 51.5122 701.768 51.5122C699.653 51.5122 697.585 52.1389 695.83 53.3121C695.73 53.3843 695.625 53.4503 695.516 53.5097H695.37C695.261 53.4503 695.156 53.3843 695.056 53.3121C693.316 52.1111 691.242 51.4819 689.124 51.5129H687.868ZM712.152 58.0337C712.796 57.5348 713.595 57.2738 714.411 57.2953H716.096V53.9569H714.411C712.973 53.9396 711.568 54.3846 710.404 55.2257C709.75 55.7054 708.958 55.9642 708.144 55.9642C707.331 55.9642 706.539 55.7054 705.885 55.2257C704.692 54.4003 703.273 53.9578 701.82 53.9578C700.367 53.9578 698.948 54.4003 697.755 55.2257C697.101 55.7054 696.309 55.9642 695.495 55.9642C694.682 55.9642 693.89 55.7054 693.236 55.2257C692.058 54.3738 690.632 53.9283 689.176 53.9569H687.439V57.2953H689.124C689.94 57.2738 690.739 57.5348 691.384 58.0337C692.574 58.8596 693.991 59.3024 695.443 59.3024C696.895 59.3024 698.312 58.8596 699.503 58.0337C700.148 57.5363 700.946 57.2755 701.762 57.2953C702.579 57.272 703.379 57.5332 704.022 58.0337C705.215 58.8591 706.634 59.3015 708.087 59.3015C709.54 59.3015 710.959 58.8591 712.152 58.0337ZM712.152 64.0033C712.796 63.5044 713.595 63.2434 714.411 63.2649H716.096V59.9265H714.411C712.973 59.9092 711.568 60.3542 710.404 61.1953C709.75 61.675 708.958 61.9338 708.144 61.9338C707.331 61.9338 706.539 61.675 705.885 61.1953C704.692 60.3699 703.273 59.9275 701.82 59.9275C700.367 59.9275 698.948 60.3699 697.755 61.1953C697.101 61.675 696.309 61.9338 695.495 61.9338C694.682 61.9338 693.89 61.675 693.236 61.1953C692.058 60.3435 690.632 59.8979 689.176 59.9265H687.439V63.2649H689.124C689.94 63.2434 690.739 63.5044 691.384 64.0033C692.574 64.8292 693.991 65.2721 695.443 65.2721C696.895 65.2721 698.312 64.8292 699.503 64.0033C700.148 63.5059 700.946 63.2451 701.762 63.2649C702.579 63.2416 703.379 63.5028 704.022 64.0033C705.215 64.8287 706.634 65.2711 708.087 65.2711C709.54 65.2711 710.959 64.8287 712.152 64.0033Z" fill="#232536"/>
<path d="M276.189 44.785H279.345V60.102H276.189V44.785Z" fill="#232536"/>
<path d="M281.112 54.855C281.112 53.753 281.437 52.6758 282.045 51.7599C282.653 50.8441 283.517 50.1308 284.528 49.7106C285.539 49.2903 286.651 49.182 287.723 49.3993C288.795 49.6166 289.779 50.1498 290.55 50.9313C291.321 51.7127 291.845 52.7073 292.054 53.7889C292.264 54.8705 292.15 55.9904 291.727 57.0067C291.304 58.023 290.591 58.8899 289.679 59.4976C288.767 60.1052 287.696 60.4263 286.603 60.42C285.877 60.4257 285.158 60.2854 284.487 60.0073C283.817 59.7293 283.208 59.3191 282.696 58.8008C282.185 58.2824 281.781 57.6664 281.509 56.9889C281.237 56.3113 281.102 55.5858 281.112 54.855ZM289.022 54.855C289.009 54.3799 288.858 53.919 288.587 53.53C288.316 53.141 287.938 52.8412 287.498 52.668C287.059 52.4948 286.579 52.4559 286.118 52.5562C285.657 52.6565 285.236 52.8916 284.907 53.232C284.578 53.5723 284.355 54.003 284.268 54.47C284.18 54.937 284.231 55.4196 284.415 55.8575C284.598 56.2954 284.905 56.6692 285.298 56.9321C285.691 57.1949 286.152 57.3352 286.624 57.3354C286.945 57.3417 287.264 57.2812 287.56 57.1576C287.857 57.0341 288.126 56.8502 288.349 56.6174C288.572 56.3846 288.745 56.1079 288.857 55.8047C288.969 55.5014 289.018 55.1781 289.001 54.855H289.022Z" fill="#232536"/>
<path d="M304.579 49.608V59.5826C304.579 63.1018 301.844 64.5964 299.078 64.5964C298.102 64.6771 297.123 64.4817 296.251 64.0323C295.38 63.5828 294.65 62.8971 294.144 62.0524L296.806 60.5048C297.021 60.9429 297.364 61.3045 297.789 61.5412C298.214 61.7779 298.7 61.8786 299.183 61.8298C299.49 61.868 299.803 61.8372 300.097 61.7396C300.392 61.6421 300.661 61.4801 300.886 61.2654C301.111 61.0507 301.286 60.7885 301.399 60.4976C301.512 60.2067 301.56 59.8942 301.539 59.5826V58.618C301.172 59.0666 300.706 59.4229 300.178 59.6584C299.65 59.8939 299.076 60.0023 298.499 59.9748C297.104 59.9748 295.766 59.4164 294.78 58.4224C293.794 57.4285 293.24 56.0804 293.24 54.6748C293.24 53.2691 293.794 51.9211 294.78 50.9271C295.766 49.9332 297.104 49.3748 298.499 49.3748C299.076 49.3473 299.65 49.4556 300.178 49.6912C300.706 49.9267 301.172 50.2829 301.539 50.7316V49.6716L304.579 49.608ZM301.539 54.643C301.56 54.1358 301.43 53.634 301.166 53.2019C300.901 52.7698 300.515 52.4273 300.056 52.2184C299.597 52.0095 299.086 51.9438 298.59 52.0296C298.093 52.1155 297.634 52.349 297.27 52.7002C296.906 53.0514 296.655 53.5042 296.549 54.0004C296.443 54.4965 296.486 55.0134 296.674 55.4844C296.861 55.9555 297.185 56.3593 297.602 56.6438C298.019 56.9283 298.511 57.0805 299.014 57.081C299.343 57.1048 299.673 57.059 299.983 56.9463C300.293 56.8337 300.576 56.6568 300.814 56.427C301.052 56.1973 301.239 55.9198 301.364 55.6125C301.489 55.3052 301.549 54.9749 301.539 54.643Z" fill="#232536"/>
<path d="M306.356 54.855C306.356 53.7539 306.68 52.6776 307.288 51.7622C307.895 50.8468 308.758 50.1335 309.768 49.7126C310.777 49.2917 311.888 49.1822 312.96 49.3977C314.031 49.6133 315.015 50.1444 315.787 50.9237C316.559 51.7031 317.084 52.6957 317.296 53.7759C317.508 54.8561 317.397 55.9753 316.977 56.992C316.558 58.0087 315.848 58.8771 314.939 59.4873C314.029 60.0975 312.961 60.4221 311.868 60.42C311.141 60.4271 310.421 60.288 309.748 60.0107C309.075 59.7334 308.465 59.3236 307.951 58.8053C307.438 58.2869 307.032 57.6705 306.758 56.9922C306.485 56.3139 306.348 55.5873 306.356 54.855ZM314.266 54.855C314.254 54.3795 314.102 53.9182 313.831 53.529C313.56 53.1398 313.18 52.84 312.74 52.6671C312.301 52.4942 311.82 52.456 311.359 52.5571C310.898 52.6583 310.476 52.8944 310.148 53.2359C309.819 53.5773 309.597 54.0089 309.511 54.4766C309.425 54.9443 309.477 55.4272 309.662 55.8649C309.847 56.3027 310.156 56.6757 310.55 56.9373C310.944 57.1988 311.407 57.3374 311.879 57.3354C312.2 57.3417 312.519 57.2812 312.815 57.1577C313.112 57.0342 313.381 56.8503 313.604 56.6175C313.827 56.3847 314 56.108 314.112 55.8048C314.224 55.5015 314.273 55.1782 314.256 54.855H314.266Z" fill="#232536"/>
<path d="M318.842 46.7989C318.842 46.4257 318.952 46.0609 319.158 45.7507C319.364 45.4404 319.656 45.1985 319.998 45.0557C320.34 44.9129 320.717 44.8756 321.08 44.9484C321.443 45.0212 321.777 45.2009 322.039 45.4647C322.3 45.7286 322.479 46.0648 322.551 46.4308C322.623 46.7968 322.586 47.1762 322.444 47.521C322.303 47.8657 322.063 48.1604 321.755 48.3677C321.447 48.5751 321.085 48.6857 320.715 48.6857C320.22 48.6802 319.747 48.4796 319.397 48.127C319.047 47.7743 318.848 47.2976 318.842 46.7989ZM319.147 49.6079H322.303V60.1019H319.147V49.6079Z" fill="#232536"/>
<path d="M335.809 54.855C335.844 55.5529 335.742 56.251 335.509 56.909C335.275 57.5671 334.915 58.1721 334.449 58.6893C333.982 59.2065 333.419 59.6257 332.791 59.9227C332.164 60.2198 331.484 60.3887 330.791 60.42C330.203 60.4594 329.614 60.3645 329.068 60.1424C328.521 59.9203 328.032 59.5768 327.636 59.1374V64.3208H324.48V49.608H327.636V50.5938C328.032 50.1557 328.522 49.8137 329.069 49.5934C329.615 49.3731 330.204 49.2803 330.791 49.3218C331.481 49.3531 332.158 49.521 332.784 49.8161C333.409 50.1111 333.971 50.5274 334.437 51.0412C334.903 51.555 335.264 52.1562 335.499 52.8106C335.735 53.465 335.84 54.1597 335.809 54.855ZM332.653 54.855C332.641 54.3627 332.484 53.885 332.203 53.4818C331.923 53.0787 331.53 52.768 331.075 52.5887C330.62 52.4094 330.122 52.3695 329.645 52.4739C329.167 52.5784 328.731 52.8225 328.39 53.1758C328.05 53.5292 327.821 53.9759 327.731 54.46C327.641 54.9441 327.696 55.4441 327.887 55.8974C328.078 56.3506 328.398 56.7368 328.806 57.0077C329.214 57.2786 329.692 57.4221 330.181 57.4202C330.516 57.4345 330.85 57.3773 331.161 57.2525C331.472 57.1276 331.754 56.9379 331.987 56.6956C332.221 56.4534 332.401 56.1642 332.515 55.847C332.63 55.5298 332.677 55.1917 332.653 54.855Z" fill="#232536"/>
<path d="M345.412 56.9537C345.412 59.3705 343.309 60.3987 341.079 60.3987C340.169 60.4812 339.256 60.287 338.457 59.841C337.658 59.3951 337.011 58.7179 336.598 57.8971L339.311 56.3495C339.419 56.7278 339.652 57.0573 339.972 57.2831C340.292 57.5088 340.679 57.6171 341.068 57.5897C341.815 57.5897 342.194 57.3565 342.194 56.9325C342.194 55.7771 337.071 56.3919 337.071 52.7561C337.071 50.4665 338.985 49.3217 341.152 49.3217C341.976 49.2846 342.794 49.4729 343.52 49.8667C344.246 50.2605 344.853 50.8451 345.276 51.5583L342.562 52.9999C342.442 52.7265 342.246 52.4939 341.998 52.3302C341.749 52.1666 341.459 52.0789 341.163 52.0777C340.616 52.0777 340.29 52.2897 340.29 52.6607C340.29 53.8691 345.412 53.0741 345.412 56.9537Z" fill="#232536"/>
<path d="M356.846 49.608V60.102H353.69V59.1162C353.331 59.5526 352.876 59.8979 352.361 60.1244C351.846 60.3509 351.285 60.4521 350.724 60.42C348.62 60.42 346.821 58.9042 346.821 56.074V49.608H349.977V55.597C349.952 55.8474 349.981 56.1002 350.063 56.338C350.145 56.5758 350.277 56.793 350.45 56.9744C350.623 57.1558 350.833 57.2972 351.065 57.3888C351.298 57.4804 351.547 57.5201 351.797 57.505C352.933 57.505 353.732 56.8266 353.732 55.385V49.608H356.846Z" fill="#232536"/>
<path d="M374.728 53.6572V60.102H371.572V53.9328C371.572 52.8728 371.078 52.2156 370.078 52.2156C369.079 52.2156 368.448 52.947 368.448 54.1872V60.102H365.292V53.9328C365.292 52.8728 364.798 52.2156 363.799 52.2156C362.799 52.2156 362.168 52.947 362.168 54.1872V60.102H359.013V49.608H362.168V50.5726C362.495 50.1465 362.922 49.809 363.41 49.5906C363.899 49.3722 364.433 49.2799 364.966 49.3218C365.5 49.2938 366.032 49.4061 366.509 49.6476C366.987 49.8892 367.394 50.2518 367.691 50.6998C368.037 50.2318 368.496 49.8599 369.024 49.6189C369.552 49.3779 370.132 49.2757 370.709 49.3218C373.171 49.3218 374.728 51.039 374.728 53.6572Z" fill="#232536"/>
<path d="M257.392 42.029V37.524H243.297V68.476H257.392V63.971C254.505 63.971 251.736 62.8152 249.694 60.7577C247.653 58.7002 246.506 55.9097 246.506 53C246.506 50.0904 247.653 47.2998 249.694 45.2424C251.736 43.1849 254.505 42.029 257.392 42.029Z" fill="#232536"/>
<path d="M257.392 42.0291V63.9711C260.279 63.9711 263.049 62.8152 265.09 60.7577C267.132 58.7003 268.279 55.9097 268.279 53.0001C268.279 50.0904 267.132 47.2998 265.09 45.2424C263.049 43.1849 260.279 42.0291 257.392 42.0291Z" fill="#232536"/>
<path d="M377.378 49.5444C378.656 49.5444 379.692 48.5003 379.692 47.2124C379.692 45.9244 378.656 44.8804 377.378 44.8804C376.1 44.8804 375.064 45.9244 375.064 47.2124C375.064 48.5003 376.1 49.5444 377.378 49.5444Z" fill="#232536"/>
<path d="M43.3347 51.7895C42.9382 52.1899 42.6346 52.6731 42.4454 53.2046C42.2562 53.7362 42.1862 54.3031 42.2403 54.865L42.2215 54.8461C42.2771 55.5074 42.1883 56.173 41.9611 56.7963C41.734 57.4196 41.3741 57.9857 40.9064 58.455C40.4388 58.9243 39.8748 59.2855 39.2537 59.5135C38.6326 59.7414 37.9694 59.8306 37.3104 59.7748L37.3292 59.7937C36.541 59.72 35.7493 59.8922 35.0621 60.2867C34.3749 60.6811 33.8256 61.2787 33.4892 61.9979C33.1528 62.7172 33.0456 63.523 33.1823 64.3056C33.3189 65.0882 33.6928 65.8094 34.2528 66.371C34.8129 66.9325 35.5319 67.3071 36.3118 67.4435C37.0917 67.5799 37.8946 67.4716 38.6109 67.1334C39.3273 66.7951 39.9222 66.2434 40.3147 65.5533C40.7071 64.8633 40.8779 64.0686 40.8038 63.2776L40.8237 63.2965C40.7681 62.6351 40.8569 61.9696 41.0841 61.3463C41.3112 60.7229 41.6712 60.1569 42.1388 59.6876C42.6064 59.2183 43.1704 58.857 43.7915 58.6291C44.4126 58.4011 45.0758 58.312 45.7348 58.3678L45.7149 58.3489C46.3588 58.407 47.007 58.301 47.5992 58.0408C48.1914 57.7806 48.7087 57.3746 49.1029 56.8604C49.4972 56.3462 49.7557 55.7404 49.8546 55.0992C49.9534 54.458 49.8894 53.8021 49.6684 53.1924C49.4474 52.5826 49.0767 52.0387 48.5905 51.6111C48.1043 51.1834 47.5184 50.8858 46.8871 50.7459C46.2558 50.606 45.5995 50.6283 44.9791 50.8108C44.3586 50.9932 43.7941 51.3298 43.3379 51.7895H43.3347Z" fill="#232536"/>
<path d="M35.6162 57.3178L35.5963 57.2989C36.1564 57.3555 36.722 57.2865 37.2523 57.0969C37.7825 56.9073 38.2642 56.6018 38.6624 56.2024C39.0606 55.8031 39.3654 55.32 39.5547 54.788C39.7441 54.2559 39.8132 53.6883 39.7572 53.1262L39.7771 53.1451C39.7215 52.4837 39.8103 51.8182 40.0375 51.1949C40.2646 50.5715 40.6245 50.0055 41.0922 49.5362C41.5598 49.0669 42.1238 48.7056 42.7449 48.4777C43.366 48.2497 44.0292 48.1606 44.6882 48.2164L44.6683 48.1975C45.4567 48.2718 46.2486 48.1002 46.9362 47.7062C47.6238 47.3122 48.1736 46.7149 48.5105 45.9957C48.8474 45.2766 48.9551 44.4707 48.8188 43.6879C48.6826 42.9052 48.309 42.1836 47.7491 41.6217C47.1893 41.0598 46.4703 40.685 45.6903 40.5482C44.9103 40.4115 44.1073 40.5195 43.3907 40.8576C42.6742 41.1958 42.079 41.7475 41.6864 42.4376C41.2938 43.1276 41.1228 43.9224 41.1969 44.7136L41.178 44.6936C41.2339 45.355 41.1451 46.0207 40.9181 46.6441C40.691 47.2675 40.331 47.8336 39.8634 48.303C39.3957 48.7723 38.8316 49.1335 38.2104 49.3614C37.5892 49.5893 36.926 49.6783 36.267 49.6223L36.2858 49.6423C35.7257 49.5857 35.1601 49.6546 34.6298 49.8443C34.0995 50.0339 33.6179 50.3394 33.2197 50.7387C32.8215 51.1381 32.5167 51.6212 32.3274 52.1532C32.138 52.6852 32.0688 53.2529 32.1249 53.815L32.106 53.7961C32.1615 54.4574 32.0725 55.1229 31.8453 55.7461C31.6181 56.3693 31.2581 56.9353 30.7905 57.4046C30.323 57.8739 29.759 58.2351 29.138 58.4631C28.517 58.6911 27.8539 58.7804 27.1949 58.7248L27.2138 58.7437C26.4254 58.6694 25.6335 58.841 24.9459 59.235C24.2583 59.629 23.7085 60.2263 23.3716 60.9454C23.0347 61.6645 22.927 62.4704 23.0633 63.2532C23.1995 64.036 23.5731 64.7576 24.1329 65.3195C24.6928 65.8813 25.4118 66.2562 26.1918 66.393C26.9718 66.5297 27.7748 66.4216 28.4913 66.0835C29.2079 65.7454 29.8031 65.1937 30.1957 64.5036C30.5883 63.8136 30.7592 63.0187 30.6852 62.2276L30.7051 62.2465C30.6495 61.5851 30.7383 60.9196 30.9655 60.2963C31.1926 59.6729 31.5525 59.1069 32.0202 58.6376C32.4878 58.1683 33.0518 57.807 33.6729 57.5791C34.294 57.3511 34.9572 57.262 35.6162 57.3178Z" fill="#232536"/>
<path d="M28.6043 55.2105C29.0009 54.8102 29.3045 54.327 29.4935 53.7954C29.6825 53.2638 29.7522 52.6968 29.6976 52.135L29.7175 52.1539C29.6618 51.4924 29.7507 50.8266 29.978 50.2032C30.2052 49.5797 30.5654 49.0135 31.0332 48.5441C31.5011 48.0748 32.0654 47.7136 32.6868 47.4858C33.3081 47.258 33.9715 47.1691 34.6307 47.2252L34.6108 47.2063C35.3989 47.2804 36.1905 47.1088 36.8778 46.7148C37.5651 46.3208 38.1145 45.7236 38.4513 45.0047C38.788 44.2858 38.8955 43.4802 38.7593 42.6977C38.623 41.9152 38.2496 41.194 37.6899 40.6323C37.1302 40.0706 36.4116 39.6958 35.6319 39.5591C34.8522 39.4224 34.0494 39.5303 33.3331 39.8682C32.6168 40.2061 32.0218 40.7576 31.6292 41.4473C31.2366 42.1371 31.0655 42.9316 31.1394 43.7224L31.1205 43.7035C31.1762 44.3649 31.0873 45.0304 30.8602 45.6538C30.633 46.2771 30.2731 46.8432 29.8055 47.3125C29.3378 47.7818 28.7738 48.143 28.1527 48.3709C27.5316 48.5989 26.8684 48.6881 26.2094 48.6322L26.2283 48.6511C25.5844 48.5932 24.9363 48.6993 24.3442 48.9596C23.752 49.2199 23.2349 49.626 22.8408 50.1403C22.4466 50.6546 22.1882 51.2604 22.0895 51.9015C21.9908 52.5427 22.0549 53.1985 22.2759 53.8082C22.497 54.4179 22.8678 54.9618 23.354 55.3893C23.8402 55.8169 24.4261 56.1144 25.0574 56.2542C25.6887 56.3941 26.3449 56.3717 26.9653 56.1893C27.5857 56.0068 28.1502 55.6702 28.6064 55.2105H28.6043Z" fill="#232536"/>
<path d="M61.0142 44.7377H64.1215V59.9133H61.0142V44.7377Z" fill="#232536"/>
<path d="M65.881 54.7169C65.8767 53.6264 66.1949 52.559 66.7955 51.6501C67.396 50.7412 68.2519 50.0317 69.2546 49.6113C70.2573 49.1909 71.3618 49.0787 72.4281 49.2887C73.4945 49.4988 74.4747 50.0218 75.2446 50.7914C76.0146 51.561 76.5396 52.5426 76.7532 53.6119C76.9668 54.6812 76.8594 55.7901 76.4445 56.7981C76.0297 57.8061 75.3261 58.6678 74.4228 59.2742C73.5196 59.8806 72.4574 60.2042 71.3707 60.2042C70.6493 60.2125 69.9336 60.0764 69.2653 59.8038C68.597 59.5312 67.9895 59.1277 67.4784 58.6168C66.9672 58.1059 66.5627 57.4979 66.2885 56.8283C66.0142 56.1587 65.8757 55.4409 65.881 54.7169ZM73.753 54.7169C73.74 54.2469 73.5893 53.791 73.3196 53.4065C73.0499 53.0219 72.6733 52.7257 72.2367 52.5547C71.8002 52.3838 71.3231 52.3459 70.8652 52.4456C70.4073 52.5453 69.9888 52.7783 69.6621 53.1154C69.3353 53.4525 69.1149 53.8787 69.0283 54.3409C68.9416 54.8031 68.9927 55.2806 69.175 55.7138C69.3573 56.147 69.6629 56.5166 70.0534 56.7765C70.4439 57.0364 70.9021 57.175 71.3707 57.175C71.6916 57.1836 72.0108 57.1254 72.3082 57.004C72.6055 56.8826 72.8746 56.7007 73.0984 56.4698C73.3223 56.2388 73.496 55.9639 73.6086 55.6622C73.7213 55.3605 73.7704 55.0386 73.753 54.7169Z" fill="#232536"/>
<path d="M89.2448 49.5195V59.3895C89.2448 62.8818 86.5309 64.3581 83.7761 64.3581C82.8062 64.4309 81.835 64.2343 80.969 63.7898C80.1031 63.3453 79.3759 62.67 78.8671 61.8381L81.5183 60.2998C81.7321 60.7335 82.0729 61.0913 82.4949 61.3253C82.9169 61.5593 83.4 61.6583 83.8797 61.6092C84.1862 61.6518 84.4984 61.6247 84.7931 61.5299C85.0878 61.4351 85.3575 61.275 85.5822 61.0615C85.8069 60.8479 85.981 60.5864 86.0914 60.2963C86.2018 60.0061 86.2458 59.6948 86.2201 59.3853V58.435C85.8563 58.8818 85.3931 59.2368 84.8678 59.4715C84.3425 59.7062 83.7697 59.814 83.1954 59.7864C81.8288 59.7431 80.5326 59.1679 79.5811 58.1824C78.6297 57.197 78.0977 55.8786 78.0977 54.5065C78.0977 53.1343 78.6297 51.8159 79.5811 50.8305C80.5326 49.845 81.8288 49.2698 83.1954 49.2265C83.7697 49.1989 84.3425 49.3067 84.8678 49.5414C85.3931 49.7761 85.8563 50.1311 86.2201 50.5779V49.5174L89.2448 49.5195ZM86.2212 54.508C86.2421 54.0055 86.1126 53.5081 85.8494 53.08C85.5863 52.6519 85.2015 52.3126 84.7446 52.1058C84.2877 51.899 83.7796 51.8342 83.2857 51.9197C82.7917 52.0052 82.3346 52.237 81.9731 52.5854C81.6116 52.9339 81.3622 53.3829 81.2572 53.8747C81.1521 54.3665 81.1961 54.8787 81.3835 55.3452C81.5709 55.8117 81.8931 56.2113 82.3087 56.4925C82.7243 56.7737 83.2142 56.9236 83.7154 56.923C84.0419 56.9459 84.3695 56.8999 84.6772 56.788C84.9849 56.676 85.2658 56.5007 85.5019 56.2732C85.7379 56.0457 85.9239 55.7711 86.0478 55.467C86.1717 55.163 86.2307 54.8363 86.2212 54.508Z" fill="#232536"/>
<path d="M91.0045 54.7169C91.0002 53.6264 91.3185 52.559 91.919 51.6501C92.5196 50.7412 93.3754 50.0317 94.3781 49.6113C95.3808 49.1909 96.4853 49.0787 97.5517 49.2887C98.618 49.4988 99.5982 50.0218 100.368 50.7914C101.138 51.561 101.663 52.5426 101.877 53.6119C102.09 54.6812 101.983 55.7901 101.568 56.7981C101.153 57.8061 100.45 58.6678 99.5464 59.2742C98.6431 59.8806 97.5809 60.2042 96.4942 60.2042C95.7729 60.2125 95.0571 60.0764 94.3888 59.8038C93.7205 59.5312 93.113 59.1277 92.6019 58.6168C92.0908 58.1059 91.6863 57.4979 91.412 56.8283C91.1377 56.1587 90.9992 55.4409 91.0045 54.7169ZM98.8765 54.7169C98.8636 54.2469 98.7128 53.791 98.4431 53.4065C98.1734 53.0219 97.7968 52.7257 97.3602 52.5547C96.9237 52.3838 96.4466 52.3459 95.9887 52.4456C95.5308 52.5453 95.1123 52.7783 94.7856 53.1154C94.4589 53.4525 94.2384 53.8787 94.1518 54.3409C94.0652 54.8031 94.1162 55.2806 94.2985 55.7138C94.4809 56.147 94.7864 56.5166 95.1769 56.7765C95.5674 57.0364 96.0256 57.175 96.4942 57.175C96.8151 57.1836 97.1343 57.1254 97.4317 57.004C97.7291 56.8826 97.9981 56.7007 98.222 56.4698C98.4458 56.2388 98.6195 55.9639 98.7322 55.6622C98.8448 55.3605 98.894 55.0386 98.8765 54.7169Z" fill="#232536"/>
<path d="M103.433 46.7338C103.433 46.3637 103.542 46.0019 103.747 45.6942C103.952 45.3865 104.243 45.1467 104.584 45.0051C104.925 44.8635 105.3 44.8264 105.661 44.8986C106.023 44.9708 106.355 45.149 106.616 45.4107C106.877 45.6724 107.054 46.0058 107.126 46.3687C107.198 46.7317 107.161 47.1079 107.02 47.4498C106.879 47.7917 106.64 48.0839 106.333 48.2895C106.027 48.4951 105.666 48.6049 105.298 48.6049C104.805 48.6 104.333 48.4012 103.985 48.0514C103.636 47.7016 103.438 47.2285 103.433 46.7338ZM103.747 49.5194H106.855V59.9144H103.743L103.747 49.5194Z" fill="#232536"/>
<path d="M120.272 54.7169C120.308 55.4039 120.209 56.0913 119.979 56.7394C119.749 57.3876 119.394 57.9838 118.934 58.4937C118.474 59.0037 117.918 59.4173 117.298 59.7109C116.678 60.0044 116.006 60.1721 115.322 60.2042C114.746 60.2358 114.17 60.1383 113.637 59.9189C113.103 59.6995 112.625 59.3637 112.236 58.9358V64.0714H109.129V49.5194H112.236V50.4959C112.625 50.0683 113.103 49.7328 113.637 49.5136C114.17 49.2944 114.746 49.1971 115.322 49.2286C116.007 49.2606 116.678 49.4282 117.298 49.7217C117.918 50.0153 118.475 50.429 118.935 50.9391C119.395 51.4492 119.75 52.0456 119.98 52.6939C120.209 53.3423 120.309 54.0298 120.272 54.7169ZM117.165 54.7169C117.153 54.2304 116.998 53.7583 116.72 53.3597C116.442 52.9611 116.053 52.6537 115.601 52.476C115.15 52.2982 114.656 52.2581 114.182 52.3605C113.708 52.4629 113.275 52.7034 112.936 53.0518C112.598 53.4002 112.369 53.8411 112.279 54.3192C112.189 54.7974 112.241 55.2916 112.43 55.74C112.618 56.1884 112.934 56.5711 113.338 56.8402C113.742 57.1092 114.216 57.2527 114.701 57.2527C115.034 57.2675 115.366 57.2116 115.676 57.0886C115.986 56.9655 116.267 56.7782 116.499 56.5387C116.732 56.2993 116.911 56.0132 117.026 55.6993C117.141 55.3853 117.188 55.0505 117.165 54.7169Z" fill="#232536"/>
<path d="M129.861 56.7949C129.861 59.1857 127.791 60.2042 125.554 60.2042C124.65 60.2864 123.743 60.0946 122.949 59.6536C122.155 59.2126 121.511 58.5426 121.1 57.7304L123.792 56.1922C123.901 56.5676 124.135 56.8942 124.455 57.1174C124.775 57.3406 125.161 57.4469 125.55 57.4186C126.295 57.4186 126.668 57.1897 126.668 56.7749C126.668 55.6304 121.572 56.2342 121.572 52.6379C121.572 50.371 123.478 49.2286 125.632 49.2286C126.442 49.2029 127.244 49.3956 127.954 49.7868C128.665 50.178 129.258 50.7532 129.671 51.4525L127.02 52.8868C126.904 52.6145 126.71 52.3826 126.463 52.22C126.217 52.0573 125.928 51.9712 125.632 51.9722C125.094 51.9722 124.762 52.1822 124.762 52.5539C124.766 53.7394 129.861 52.9487 129.861 56.7949Z" fill="#232536"/>
<path d="M141.212 49.5194V59.9144H138.105V58.9369C137.747 59.3682 137.291 59.7081 136.777 59.9286C136.262 60.1491 135.702 60.2439 135.144 60.2053C133.052 60.2053 131.273 58.709 131.273 55.9003V49.5194H134.38V55.4435C134.354 55.6911 134.382 55.9414 134.463 56.177C134.543 56.4125 134.673 56.6278 134.845 56.8076C135.016 56.9875 135.225 57.1278 135.455 57.2186C135.686 57.3094 135.934 57.3486 136.182 57.3335C137.321 57.3335 138.108 56.6689 138.108 55.1926V49.5226L141.212 49.5194Z" fill="#232536"/>
<path d="M159.03 53.5316V59.9135H155.923V53.8014C155.923 52.7619 155.426 52.0973 154.432 52.0973C153.396 52.0973 152.815 52.8249 152.815 54.0513V59.9135H149.709V53.8014C149.709 52.7619 149.212 52.0973 148.217 52.0973C147.181 52.0973 146.601 52.8249 146.601 54.0513V59.9135H143.494V49.5185H146.601V50.474C146.924 50.0501 147.346 49.7139 147.831 49.4962C148.316 49.2785 148.848 49.1861 149.377 49.2276C149.909 49.2015 150.438 49.3141 150.914 49.5544C151.389 49.7948 151.794 50.1546 152.09 50.5989C152.434 50.1341 152.891 49.7645 153.416 49.5247C153.941 49.2849 154.519 49.1827 155.094 49.2276C157.472 49.2287 159.03 50.9328 159.03 53.5316Z" fill="#232536"/>
<path d="M161.658 49.4554C162.932 49.4554 163.964 48.4193 163.964 47.1412C163.964 45.8631 162.932 44.827 161.658 44.827C160.384 44.827 159.352 45.8631 159.352 47.1412C159.352 48.4193 160.384 49.4554 161.658 49.4554Z" fill="#232536"/>
<path d="M504.183 47.2735H507.338V60.01H504.183V47.2735ZM508.59 55.201C508.59 52.051 510.525 50.1715 513.513 50.1715C516.5 50.1715 518.435 52.051 518.435 55.201C518.435 58.351 516.542 60.241 513.513 60.241C510.483 60.241 508.59 58.4035 508.59 55.201ZM515.269 55.201C515.269 53.4685 514.586 52.45 513.513 52.45C512.44 52.45 511.767 53.5 511.767 55.201C511.767 56.902 512.429 57.931 513.513 57.931C514.596 57.931 515.269 56.965 515.269 55.2115V55.201ZM519.624 60.6295H522.653C522.797 60.9492 523.041 61.2139 523.348 61.3842C523.655 61.5545 524.009 61.6212 524.357 61.5745C525.556 61.5745 526.188 60.9235 526.188 59.9785V58.2145H526.124C525.873 58.7552 525.465 59.2082 524.953 59.5151C524.441 59.8221 523.849 59.9688 523.253 59.9365C520.949 59.9365 519.424 58.183 519.424 55.1695C519.424 52.156 520.876 50.2555 523.295 50.2555C523.91 50.2315 524.517 50.3956 525.036 50.7259C525.555 51.0561 525.961 51.5368 526.198 52.1035V50.35H529.354V59.905C529.354 62.2045 527.324 63.6325 524.326 63.6325C521.538 63.6325 519.803 62.383 519.624 60.64V60.6295ZM526.198 55.1905C526.198 53.6575 525.493 52.6915 524.378 52.6915C523.263 52.6915 522.58 53.647 522.58 55.1905C522.58 56.734 523.253 57.6055 524.378 57.6055C525.504 57.6055 526.198 56.755 526.198 55.201V55.1905ZM530.542 55.1905C530.542 52.0405 532.478 50.161 535.465 50.161C538.452 50.161 540.398 52.0405 540.398 55.1905C540.398 58.3405 538.505 60.2305 535.465 60.2305C532.425 60.2305 530.542 58.4035 530.542 55.201V55.1905ZM537.222 55.1905C537.222 53.458 536.538 52.4395 535.465 52.4395C534.392 52.4395 533.771 53.5 533.771 55.2115C533.771 56.923 534.434 57.9415 535.507 57.9415C536.58 57.9415 537.222 56.965 537.222 55.2115V55.1905ZM541.597 48.061C541.589 47.743 541.676 47.4297 541.846 47.1608C542.016 46.8919 542.263 46.6795 542.554 46.5506C542.845 46.4217 543.169 46.3821 543.483 46.4367C543.797 46.4914 544.087 46.6379 544.318 46.8576C544.548 47.0774 544.708 47.3605 544.777 47.671C544.846 47.9816 544.821 48.3057 544.706 48.6022C544.59 48.8986 544.389 49.1541 544.128 49.3363C543.866 49.5185 543.557 49.6192 543.238 49.6255C543.027 49.64 542.815 49.6107 542.616 49.5395C542.416 49.4683 542.234 49.3568 542.08 49.2118C541.926 49.0669 541.803 48.8917 541.72 48.6973C541.637 48.5028 541.595 48.2934 541.597 48.082V48.061ZM541.597 50.371H544.753V60.01H541.597V50.371ZM556.208 55.1905C556.208 58.3405 554.809 60.136 552.41 60.136C551.796 60.1754 551.183 60.0254 550.657 59.7061C550.13 59.3869 549.714 58.9138 549.465 58.351H549.402V63.097H546.247V50.35H549.402V52.072H549.465C549.702 51.4999 550.11 51.0146 550.633 50.682C551.157 50.3495 551.77 50.1859 552.389 50.2135C554.809 50.2555 556.25 52.0615 556.25 55.2115L556.208 55.1905ZM553.052 55.1905C553.052 53.6575 552.347 52.681 551.243 52.681C550.138 52.681 549.434 53.668 549.423 55.1905C549.413 56.713 550.138 57.6895 551.243 57.6895C552.347 57.6895 553.052 56.734 553.052 55.2115V55.1905ZM561.625 50.1505C564.244 50.1505 565.832 51.3895 565.906 53.374H563.034C563.034 52.6915 562.466 52.261 561.593 52.261C560.72 52.261 560.331 52.597 560.331 53.0905C560.331 53.584 560.678 53.7415 561.383 53.8885L563.402 54.298C565.327 54.7075 566.148 55.4845 566.148 56.944C566.148 58.939 564.328 60.22 561.646 60.22C558.964 60.22 557.207 58.939 557.07 56.9755H560.11C560.205 57.6895 560.773 58.1095 561.698 58.1095C562.624 58.1095 563.045 57.805 563.045 57.301C563.045 56.797 562.75 56.692 561.993 56.5345L560.173 56.146C558.29 55.7575 557.302 54.76 557.302 53.29C557.323 51.4 559.016 50.1715 561.625 50.1715V50.1505ZM576.677 59.989H573.637V58.1935H573.574C573.407 58.7963 573.038 59.324 572.529 59.6888C572.02 60.0536 571.402 60.2336 570.776 60.199C570.297 60.2262 569.817 60.1504 569.369 59.9766C568.922 59.8029 568.517 59.5353 568.182 59.1919C567.847 58.8485 567.589 58.4373 567.427 57.9861C567.265 57.5349 567.202 57.0542 567.242 56.5765V50.35H570.397V55.852C570.397 56.9965 570.986 57.6055 571.965 57.6055C572.194 57.606 572.421 57.5575 572.63 57.4633C572.839 57.3691 573.025 57.2314 573.177 57.0594C573.328 56.8874 573.441 56.685 573.508 56.4659C573.574 56.2468 573.593 56.016 573.563 55.789V50.35H576.719L576.677 59.989ZM578.202 50.35H581.253V52.2085H581.316C581.483 51.6137 581.843 51.091 582.34 50.7224C582.837 50.3539 583.442 50.1601 584.061 50.1715C584.691 50.1212 585.316 50.3093 585.813 50.6984C586.31 51.0875 586.642 51.6491 586.743 52.2715H586.806C586.997 51.6425 587.392 51.0948 587.929 50.7146C588.466 50.3343 589.115 50.1433 589.773 50.1715C590.202 50.1571 590.629 50.233 591.027 50.3943C591.425 50.5555 591.784 50.7985 592.082 51.1075C592.379 51.4165 592.609 51.7845 592.754 52.1876C592.9 52.5908 592.959 53.02 592.928 53.4475V60.01H589.773V54.2875C589.773 53.2375 589.299 52.7545 588.416 52.7545C588.219 52.7529 588.024 52.7934 587.844 52.8734C587.664 52.9534 587.503 53.071 587.372 53.2183C587.242 53.3656 587.144 53.5391 587.087 53.7272C587.029 53.9153 587.012 54.1135 587.038 54.3085V60.01H584.04V54.2455C584.04 53.2795 583.567 52.7545 582.704 52.7545C582.505 52.7546 582.308 52.7968 582.126 52.8784C581.944 52.9601 581.782 53.0792 581.65 53.2281C581.518 53.3769 581.419 53.552 581.359 53.7419C581.3 53.9317 581.281 54.132 581.305 54.3295V60.01H578.15L578.202 50.35Z" fill="#232536"/>
<path d="M495.357 47.851C494.822 46.6292 494.114 45.4905 493.254 44.47C491.982 42.9163 490.396 41.649 488.599 40.7515C486.802 39.854 484.834 39.3466 482.826 39.2627C480.819 39.1788 478.816 39.5203 476.95 40.2647C475.084 41.0092 473.397 42.1397 472 43.5818C470.603 45.024 469.528 46.7451 468.845 48.6318C468.163 50.5186 467.888 52.5283 468.04 54.5286C468.192 56.5289 468.766 58.4744 469.725 60.2372C470.684 62 472.006 63.5401 473.605 64.756C474.63 65.5518 475.764 66.1987 476.971 66.6775C478.663 67.3698 480.475 67.7265 482.304 67.7275C486.079 67.7191 489.697 66.2168 492.365 63.5499C495.033 60.8829 496.533 57.2689 496.535 53.5C496.538 51.5559 496.137 49.6324 495.357 47.851ZM482.293 42.1495C483.936 42.1493 485.558 42.5077 487.048 43.1995C486.684 43.3561 486.303 43.4655 485.912 43.525C484.625 43.7109 483.433 44.3073 482.513 45.2251C481.594 46.1429 480.996 47.3329 480.81 48.6175C480.728 49.3379 480.4 50.0081 479.881 50.515C479.361 51.0219 478.683 51.3345 477.959 51.4C476.673 51.5859 475.481 52.1823 474.561 53.1001C473.642 54.0179 473.044 55.2079 472.858 56.4925C472.795 57.1775 472.502 57.8212 472.027 58.3195C471.207 56.5904 470.839 54.6824 470.956 52.7731C471.074 50.8637 471.673 49.0151 472.699 47.3992C473.725 45.7833 475.143 44.4527 476.823 43.5311C478.502 42.6096 480.387 42.1271 482.304 42.1285L482.293 42.1495ZM473.594 60.85C473.72 60.7345 473.847 60.6295 473.973 60.5035C474.909 59.5978 475.509 58.4023 475.677 57.112C475.745 56.3867 476.069 55.7092 476.592 55.201C477.095 54.6783 477.772 54.3571 478.496 54.298C479.783 54.112 480.975 53.5156 481.894 52.5978C482.814 51.6801 483.411 50.4901 483.597 49.2055C483.643 48.4469 483.969 47.7322 484.513 47.2C485.028 46.6874 485.712 46.3779 486.438 46.3285C487.62 46.1661 488.722 45.6415 489.593 44.827C490.585 45.6482 491.425 46.636 492.075 47.746C492.036 47.7999 491.99 47.8492 491.939 47.893C491.437 48.4203 490.76 48.7485 490.035 48.817C488.747 48.9997 487.553 49.595 486.633 50.5134C485.713 51.4318 485.116 52.6236 484.933 53.9095C484.859 54.6323 484.537 55.3074 484.021 55.8202C483.506 56.3331 482.828 56.6522 482.104 56.7235C480.813 56.908 479.617 57.5032 478.692 58.4206C477.767 59.3381 477.164 60.5288 476.971 61.816C476.914 62.3291 476.738 62.8219 476.455 63.2545C475.376 62.6149 474.41 61.8025 473.594 60.85ZM482.293 64.903C481.226 64.9041 480.164 64.7557 479.138 64.462C479.489 63.8089 479.717 63.0971 479.811 62.362C479.884 61.6407 480.205 60.967 480.719 60.4543C481.232 59.9417 481.907 59.6216 482.63 59.548C483.919 59.3641 485.113 58.7687 486.035 57.8507C486.956 56.9327 487.555 55.7416 487.742 54.4555C487.816 53.7342 488.136 53.0605 488.65 52.5478C489.163 52.0352 489.838 51.7151 490.561 51.6415C491.531 51.5156 492.455 51.1551 493.254 50.5915C493.697 52.2693 493.75 54.0262 493.407 55.7274C493.065 57.4286 492.336 59.0289 491.278 60.4056C490.22 61.7822 488.86 62.8986 487.303 63.6691C485.745 64.4396 484.031 64.8437 482.293 64.8505V64.903Z" fill="#232536"/>
<path d="M938.7 47.4729H942.077V61.1229H938.7V47.4729ZM943.423 55.9884C943.423 52.6074 945.527 50.581 948.682 50.581C951.838 50.581 953.942 52.6074 953.942 55.9884C953.942 59.3694 951.912 61.4169 948.682 61.4169C945.453 61.4169 943.423 59.4429 943.423 55.9884ZM950.597 55.9884C950.597 54.1299 949.871 53.038 948.714 53.038C947.557 53.038 946.842 54.0879 946.842 55.9884C946.842 57.8889 947.557 58.9284 948.714 58.9284C949.871 58.9284 950.618 57.8889 950.618 55.999L950.597 55.9884ZM955.288 61.8264H958.549C958.697 62.1769 958.957 62.4692 959.287 62.6588C959.617 62.8484 960.001 62.9248 960.379 62.8764C961.673 62.8764 962.346 62.1834 962.346 61.1544V59.2644H962.357C962.078 59.853 961.627 60.3435 961.064 60.6715C960.501 60.9994 959.851 61.1495 959.201 61.1019C956.729 61.1019 955.088 59.2224 955.088 55.9884C955.088 52.7544 956.655 50.7384 959.296 50.7384C959.963 50.7028 960.624 50.8746 961.189 51.23C961.755 51.5854 962.195 52.107 962.451 52.7229H962.357V50.8225H965.701V61.0494C965.701 63.5169 963.514 65.0604 960.295 65.0604C957.371 65.0499 955.498 63.7164 955.309 61.8369L955.288 61.8264ZM962.357 55.9884C962.357 54.3399 961.599 53.3005 960.4 53.3005C959.201 53.3005 958.465 54.3504 958.465 55.9884C958.465 57.6264 959.19 58.5924 960.4 58.5924C961.61 58.5924 962.357 57.6999 962.357 55.9884ZM967.037 55.9884C967.037 52.6074 969.141 50.581 972.297 50.581C975.452 50.581 977.556 52.6074 977.556 55.9884C977.556 59.3694 975.515 61.4169 972.297 61.4169C969.078 61.4169 967.058 59.4429 967.058 55.9884H967.037ZM974.211 55.9884C974.211 54.1299 973.475 53.038 972.328 53.038C971.182 53.038 970.456 54.0879 970.456 55.9884C970.456 57.8889 971.171 58.9284 972.328 58.9284C973.485 58.9284 974.232 57.8889 974.232 55.999L974.211 55.9884ZM978.923 48.334C978.909 47.9906 978.997 47.6508 979.178 47.3581C979.358 47.0654 979.622 46.8333 979.936 46.6916C980.249 46.5499 980.598 46.5052 980.938 46.5631C981.277 46.621 981.591 46.7789 981.84 47.0166C982.088 47.2542 982.26 47.5607 982.333 47.8966C982.406 48.2324 982.376 48.5824 982.248 48.9013C982.12 49.2203 981.899 49.4937 981.614 49.6863C981.329 49.879 980.993 49.9821 980.648 49.9825C980.428 49.988 980.21 49.9499 980.004 49.8704C979.799 49.7908 979.612 49.6714 979.453 49.519C979.295 49.3666 979.168 49.1843 979.081 48.9827C978.994 48.7811 978.947 48.5641 978.944 48.3445L978.923 48.334ZM978.923 50.8119H982.342V61.1649H978.976L978.923 50.8119ZM994.638 55.9884C994.638 59.3589 993.124 61.3119 990.546 61.3119C989.887 61.3526 989.23 61.1901 988.666 60.8465C988.102 60.5029 987.657 59.9946 987.391 59.3904H987.328V64.4934H983.951V50.8435H987.307V52.6914H987.37C987.627 52.0754 988.067 51.5533 988.632 51.1963C989.197 50.8393 989.858 50.6647 990.525 50.6965C993.176 50.6755 994.701 52.618 994.701 55.999L994.638 55.9884ZM991.199 55.9884C991.199 54.3504 990.431 53.2899 989.242 53.2899C988.054 53.2899 987.307 54.3399 987.296 55.9884C987.286 57.6369 988.054 58.6764 989.242 58.6764C990.431 58.6764 991.262 57.6999 991.262 55.999L991.199 55.9884ZM1000.4 50.5704C1003.23 50.5704 1004.99 51.904 1005.01 54.046H1001.93C1001.93 53.3005 1001.31 52.8384 1000.38 52.8384C999.456 52.8384 999.014 53.1955 999.014 53.731C999.014 54.2665 999.403 54.4345 1000.18 54.592L1002.35 55.0329C1004.45 55.4739 1005.29 56.3139 1005.29 57.8784C1005.29 59.9784 1003.35 61.4064 1000.46 61.4064C997.562 61.4064 995.68 60.0204 995.543 57.9099H998.814C998.909 58.6764 999.519 59.1279 1000.51 59.1279C1001.5 59.1279 1001.96 58.8129 1001.96 58.2564C1001.96 57.6999 1001.64 57.6054 1000.83 57.4374L998.877 57.0279C996.847 56.5974 995.785 55.5369 995.785 53.9514C995.848 51.8935 997.615 50.581 1000.47 50.581L1000.4 50.5704ZM1016.6 61.1544H1013.33V59.2119H1013.27C1013.08 59.8599 1012.68 60.4262 1012.14 60.8174C1011.59 61.2087 1010.92 61.4017 1010.25 61.3644C1009.74 61.381 1009.23 61.29 1008.76 61.0975C1008.29 60.905 1007.87 60.6153 1007.52 60.2474C1007.17 59.8796 1006.9 59.4418 1006.73 58.963C1006.56 58.4842 1006.49 57.975 1006.53 57.4689V50.8225H1009.91V56.7444C1009.91 57.9624 1010.55 58.6239 1011.6 58.6239C1011.85 58.6221 1012.1 58.5674 1012.32 58.4636C1012.54 58.3598 1012.74 58.2092 1012.9 58.0221C1013.06 57.835 1013.18 57.6157 1013.25 57.3789C1013.32 57.1422 1013.33 56.8936 1013.3 56.6499V50.8225H1016.66L1016.6 61.1544ZM1018.23 50.8119H1021.51V52.807H1021.59C1021.77 52.1679 1022.16 51.6068 1022.69 51.2116C1023.23 50.8164 1023.88 50.6094 1024.54 50.6229C1025.21 50.565 1025.88 50.7578 1026.41 51.1636C1026.94 51.5695 1027.3 52.1592 1027.42 52.8174H1027.57C1027.78 52.1557 1028.21 51.5817 1028.78 51.1849C1029.35 50.788 1030.03 50.5905 1030.73 50.6229C1031.19 50.6054 1031.65 50.6854 1032.08 50.8577C1032.51 51.03 1032.89 51.2907 1033.21 51.6227C1033.54 51.9548 1033.78 52.3507 1033.94 52.7846C1034.1 53.2184 1034.16 53.6805 1034.13 54.1405V61.1649H1030.73V55.0014C1030.73 53.9514 1030.23 53.3634 1029.28 53.3634C1029.06 53.36 1028.85 53.4024 1028.66 53.4877C1028.46 53.5731 1028.29 53.6994 1028.15 53.8579C1028.01 54.0165 1027.9 54.2036 1027.84 54.4064C1027.78 54.6092 1027.76 54.823 1027.79 55.0329V61.1649H1024.57V54.97C1024.57 53.92 1024.06 53.3634 1023.13 53.3634C1022.92 53.3617 1022.71 53.4059 1022.51 53.4929C1022.31 53.5798 1022.14 53.7077 1022 53.8678C1021.85 54.0279 1021.75 54.2166 1021.68 54.4212C1021.62 54.6258 1021.6 54.8415 1021.63 55.0539V61.1649H1018.25L1018.23 50.8119Z" fill="#232536"/>
<path d="M932.021 48.3656C932.021 46.2758 931.389 44.2346 930.207 42.5095C929.025 40.7845 927.349 39.4558 925.398 38.6977C923.447 37.9396 921.313 37.7874 919.273 38.2609C917.234 38.7345 915.386 39.8117 913.971 41.3516H900.844V69.0086H928.56V56.0831C929.648 55.1118 930.518 53.9225 931.115 52.5927C931.711 51.2629 932.02 49.8225 932.021 48.3656ZM926.688 48.3656C926.69 49.367 926.394 50.3465 925.838 51.1802C925.283 52.0138 924.492 52.6642 923.565 53.0488C922.639 53.4335 921.619 53.5352 920.635 53.3411C919.651 53.147 918.747 52.6658 918.036 51.9585C917.326 51.2511 916.842 50.3493 916.646 49.3673C916.45 48.3853 916.549 47.3672 916.933 46.4418C917.316 45.5164 917.966 44.7253 918.8 44.1688C919.634 43.6122 920.615 43.3151 921.618 43.3151C922.961 43.3151 924.249 43.8469 925.199 44.7937C926.15 45.7406 926.685 47.0252 926.688 48.3656ZM923.227 63.6851H906.176V46.6751H911.373C911.272 47.2331 911.219 47.7987 911.215 48.3656C911.218 51.1189 912.315 53.7586 914.265 55.7055C916.215 57.6523 918.86 58.7473 921.618 58.7501C922.157 58.7472 922.695 58.7016 923.227 58.6136V63.6851Z" fill="#232536"/>
</svg>
